<?xml version="1.0" encoding="utf-8"?>
<!-- Generator: Adobe Illustrator 18.0.0, SVG Export Plug-In . SVG Version: 6.00 Build 0)  -->
<!DOCTYPE svg PUBLIC "-//W3C//DTD SVG 1.1//EN" "http://www.w3.org/Graphics/SVG/1.1/DTD/svg11.dtd">
<svg version="1.1" id="Calque_1" xmlns="http://www.w3.org/2000/svg" xmlns:xlink="http://www.w3.org/1999/xlink" x="0px" y="0px"
	 viewBox="0 0 292.4 116.8" enable-background="new 0 0 292.4 116.8" xml:space="preserve">
<g>
	<g>
		<path fill="#AA9113" d="M1,60.2c4.3,11.3,18.8,48.3,18.8,48.3s1.9,6.2,11.1,6.2s115.4,0,115.4,0s106.3,0,115.4,0
			c9.1,0,11.1-6.2,11.1-6.2s14.4-36.8,18.8-48.1c4.3-11.3-6.7-10.5-6.7-10.5l-138.5-0.3L7.7,49.8C7.7,49.8-3.3,48.9,1,60.2z"/>
		<linearGradient id="SVGID_1_" gradientUnits="userSpaceOnUse" x1="146.2084" y1="116.7719" x2="146.2084" y2="52.4393">
			<stop  offset="0" style="stop-color:#817A45"/>
			<stop  offset="0.1468" style="stop-color:#8A8142"/>
			<stop  offset="0.3901" style="stop-color:#A49439"/>
			<stop  offset="0.6235" style="stop-color:#C2AB2E"/>
		</linearGradient>
		<path fill="url(#SVGID_1_)" d="M1,63.1C5.3,74.5,19.8,111,19.8,111s1.9,5.8,11.1,5.8s115.4,0,115.4,0s106.3,0,115.4,0
			c9.1,0,11.1-5.8,11.1-5.8s14.4-36.6,18.8-47.9c4.3-11.3-6.7-10.4-6.7-10.4l-138.5-0.2L7.7,52.7C7.7,52.7-3.3,51.8,1,63.1z"/>
	</g>
	<g>
		<g>
			<path fill="#605216" d="M59.5,70.7c0.8,0,1.3,0.4,1.3,1.3v19.6c0,0.8,0.5,1.3,1.3,1.3h9.3c0.8,0,1.3,0.4,1.3,1.3v4.7
				c0,0.8-0.4,1.3-1.3,1.3H54.8c-0.8,0-1.3-0.5-1.3-1.3V71.9c0-0.8,0.5-1.3,1.3-1.3H59.5z"/>
			<path fill="#605216" d="M123,90.5c0,2.8-0.6,10.2-10.5,10.2S102,93.3,102,90.5V80.1c0-2.8,0.6-10.2,10.5-10.2S123,77.3,123,80.1
				V90.5z M115.8,82.3c0-3.2-0.2-5.2-3.3-5.2s-3.3,2-3.3,5.2v6c0,3.2,0.2,5.2,3.3,5.2s3.3-2,3.3-5.2V82.3z"/>
			<path fill="#605216" d="M176,97.7c0.6,1.1-0.1,2.3-1.4,2.3h-4.8c-0.4,0-0.8-0.2-1-0.6l-4.4-8.4c-0.1-0.1-0.2-0.2-0.3-0.2h-1.7
				c-0.8,0-1.3,0.5-1.3,1.3v6.6c0,0.8-0.5,1.3-1.3,1.3h-4.7c-0.8,0-1.3-0.5-1.3-1.3V72c0-0.8,0.5-1.3,1.3-1.3h9.2
				c7.5,0,10.5,3.2,10.5,10c0,3.9-1,6.6-3.2,8.2c-0.2,0.1-0.2,0.3-0.1,0.5L176,97.7z M162.6,77.9c-0.8,0-1.3,0.5-1.3,1.3v3.1
				c0,0.8,0.5,1.3,1.3,1.3h2.1c2,0,3-0.3,3-2.8c0-2.6-1-2.8-3-2.8H162.6z"/>
			<path fill="#605216" d="M216.6,70.7c7.9,0,10.5,3.2,10.5,10v9.2c0,6.9-2.6,10.1-10.5,10.1h-9.3c-0.8,0-1.3-0.5-1.3-1.3V72
				c0-0.8,0.4-1.3,1.3-1.3H216.6z M216.7,92.8c2,0,3-0.3,3-2.8c0,0,0-9.2,0-9.2c0-2.6-1-2.8-3-2.8h-2.3c-0.8,0-1.3,0.4-1.3,1.3v12.4
				c0,0.8,0.5,1.3,1.3,1.3H216.7z"/>
		</g>
		<g>
			<path fill="#605216" d="M59.5,69.6c0.8,0,1.3,0.4,1.3,1.3v19.6c0,0.8,0.5,1.3,1.3,1.3h9.3c0.8,0,1.3,0.4,1.3,1.3v4.7
				c0,0.8-0.4,1.3-1.3,1.3H54.8c-0.8,0-1.3-0.5-1.3-1.3V70.8c0-0.8,0.5-1.3,1.3-1.3H59.5z"/>
			<path fill="#605216" d="M123,89.5c0,2.8-0.6,10.2-10.5,10.2S102,92.2,102,89.5V79c0-2.8,0.6-10.2,10.5-10.2S123,76.2,123,79V89.5
				z M115.8,81.2c0-3.2-0.2-5.2-3.3-5.2s-3.3,2-3.3,5.2v6c0,3.2,0.2,5.2,3.3,5.2s3.3-2,3.3-5.2V81.2z"/>
			<path fill="#605216" d="M176,96.6c0.6,1.1-0.1,2.3-1.4,2.3h-4.8c-0.4,0-0.8-0.2-1-0.6l-4.4-8.4c-0.1-0.1-0.2-0.2-0.3-0.2h-1.7
				c-0.8,0-1.3,0.5-1.3,1.3v6.6c0,0.8-0.5,1.3-1.3,1.3h-4.7c-0.8,0-1.3-0.5-1.3-1.3V70.9c0-0.8,0.5-1.3,1.3-1.3h9.2
				c7.5,0,10.5,3.2,10.5,10c0,3.9-1,6.6-3.2,8.2c-0.2,0.1-0.2,0.3-0.1,0.5L176,96.6z M162.6,76.8c-0.8,0-1.3,0.5-1.3,1.3v3.1
				c0,0.8,0.5,1.3,1.3,1.3h2.1c2,0,3-0.3,3-2.8s-1-2.8-3-2.8H162.6z"/>
			<path fill="#605216" d="M216.6,69.6c7.9,0,10.5,3.2,10.5,10v9.2c0,6.9-2.6,10.1-10.5,10.1h-9.3c-0.8,0-1.3-0.5-1.3-1.3V70.9
				c0-0.8,0.4-1.3,1.3-1.3H216.6z M216.7,91.7c2,0,3-0.3,3-2.8c0,0,0-9.2,0-9.2c0-2.6-1-2.8-3-2.8h-2.3c-0.8,0-1.3,0.4-1.3,1.3v12.4
				c0,0.8,0.5,1.3,1.3,1.3H216.7z"/>
		</g>
		<g>
			<path fill="#605216" d="M59.5,68.5c0.8,0,1.3,0.4,1.3,1.3v19.6c0,0.8,0.5,1.3,1.3,1.3h9.3c0.8,0,1.3,0.4,1.3,1.3v4.7
				c0,0.8-0.4,1.3-1.3,1.3H54.8c-0.8,0-1.3-0.5-1.3-1.3V69.8c0-0.8,0.5-1.3,1.3-1.3H59.5z"/>
			<path fill="#605216" d="M123,88.4c0,2.8-0.6,10.2-10.5,10.2S102,91.1,102,88.4V77.9c0-2.8,0.6-10.2,10.5-10.2S123,75.2,123,77.9
				V88.4z M115.8,80.1c0-3.2-0.2-5.2-3.3-5.2s-3.3,2-3.3,5.2v6c0,3.2,0.2,5.2,3.3,5.2s3.3-2,3.3-5.2V80.1z"/>
			<path fill="#605216" d="M176,95.5c0.6,1.1-0.1,2.3-1.4,2.3h-4.8c-0.4,0-0.8-0.2-1-0.6l-4.4-8.4c-0.1-0.1-0.2-0.2-0.3-0.2h-1.7
				c-0.8,0-1.3,0.5-1.3,1.3v6.6c0,0.8-0.5,1.3-1.3,1.3h-4.7c-0.8,0-1.3-0.5-1.3-1.3V69.8c0-0.8,0.5-1.3,1.3-1.3h9.2
				c7.5,0,10.5,3.2,10.5,10c0,3.9-1,6.6-3.2,8.2c-0.2,0.1-0.2,0.3-0.1,0.5L176,95.5z M162.6,75.7c-0.8,0-1.3,0.5-1.3,1.3v3.1
				c0,0.8,0.5,1.3,1.3,1.3h2.1c2,0,3-0.3,3-2.8s-1-2.8-3-2.8H162.6z"/>
			<path fill="#605216" d="M216.6,68.5c7.9,0,10.5,3.2,10.5,10v9.2c0,6.9-2.6,10.1-10.5,10.1h-9.3c-0.8,0-1.3-0.5-1.3-1.3V69.8
				c0-0.8,0.4-1.3,1.3-1.3H216.6z M216.7,90.6c2,0,3-0.3,3-2.8c0,0,0-9.2,0-9.2c0-2.6-1-2.8-3-2.8h-2.3c-0.8,0-1.3,0.4-1.3,1.3v12.4
				c0,0.8,0.5,1.3,1.3,1.3H216.7z"/>
		</g>
	</g>
	<g>
		<linearGradient id="SVGID_2_" gradientUnits="userSpaceOnUse" x1="63.0733" y1="100.3593" x2="63.0733" y2="71.0527">
			<stop  offset="0" style="stop-color:#C5B8A6"/>
			<stop  offset="0.4131" style="stop-color:#DCDCBD"/>
			<stop  offset="0.7795" style="stop-color:#ECF6CE"/>
			<stop  offset="1" style="stop-color:#F2FFD4"/>
		</linearGradient>
		<path fill="url(#SVGID_2_)" d="M59.5,71.1c0.8,0,1.3,0.4,1.3,1.3v19.6c0,0.8,0.5,1.3,1.3,1.3h9.3c0.8,0,1.3,0.4,1.3,1.3v4.7
			c0,0.8-0.4,1.3-1.3,1.3H54.8c-0.8,0-1.3-0.5-1.3-1.3V72.3c0-0.8,0.5-1.3,1.3-1.3H59.5z"/>
		<linearGradient id="SVGID_3_" gradientUnits="userSpaceOnUse" x1="112.4912" y1="101.113" x2="112.4912" y2="70.299">
			<stop  offset="0" style="stop-color:#C5B8A6"/>
			<stop  offset="0.4131" style="stop-color:#DCDCBD"/>
			<stop  offset="0.7795" style="stop-color:#ECF6CE"/>
			<stop  offset="1" style="stop-color:#F2FFD4"/>
		</linearGradient>
		<path fill="url(#SVGID_3_)" d="M123,90.9c0,2.8-0.6,10.2-10.5,10.2c-9.9,0-10.5-7.4-10.5-10.2V80.5c0-2.8,0.6-10.2,10.5-10.2
			c9.9,0,10.5,7.4,10.5,10.2V90.9z M115.8,82.7c0-3.2-0.2-5.2-3.3-5.2c-3.1,0-3.3,2-3.3,5.2v6c0,3.2,0.2,5.2,3.3,5.2
			c3.1,0,3.3-2,3.3-5.2V82.7z"/>
		<linearGradient id="SVGID_4_" gradientUnits="userSpaceOnUse" x1="165.1131" y1="100.3593" x2="165.1131" y2="71.0527">
			<stop  offset="0" style="stop-color:#C5B8A6"/>
			<stop  offset="0.4131" style="stop-color:#DCDCBD"/>
			<stop  offset="0.7795" style="stop-color:#ECF6CE"/>
			<stop  offset="1" style="stop-color:#F2FFD4"/>
		</linearGradient>
		<path fill="url(#SVGID_4_)" d="M176,98.1c0.6,1.1-0.1,2.3-1.4,2.3h-4.8c-0.4,0-0.8-0.2-1-0.6l-4.4-8.4c-0.1-0.1-0.2-0.2-0.3-0.2
			h-1.7c-0.8,0-1.3,0.5-1.3,1.3v6.6c0,0.8-0.5,1.3-1.3,1.3h-4.7c-0.8,0-1.3-0.5-1.3-1.3V72.4c0-0.8,0.5-1.3,1.3-1.3h9.2
			c7.5,0,10.5,3.2,10.5,10c0,3.9-1,6.6-3.2,8.2c-0.2,0.1-0.2,0.3-0.1,0.5L176,98.1z M162.6,78.3c-0.8,0-1.3,0.5-1.3,1.3v3.1
			c0,0.8,0.5,1.3,1.3,1.3h2.1c2,0,3-0.3,3-2.8c0-2.6-1-2.8-3-2.8H162.6z"/>
		<linearGradient id="SVGID_5_" gradientUnits="userSpaceOnUse" x1="216.5375" y1="100.3593" x2="216.5375" y2="71.0527">
			<stop  offset="0" style="stop-color:#C5B8A6"/>
			<stop  offset="0.4131" style="stop-color:#DCDCBD"/>
			<stop  offset="0.7795" style="stop-color:#ECF6CE"/>
			<stop  offset="1" style="stop-color:#F2FFD4"/>
		</linearGradient>
		<path fill="url(#SVGID_5_)" d="M216.6,71.1c7.9,0,10.5,3.2,10.5,10v9.2c0,6.9-2.6,10.1-10.5,10.1h-9.3c-0.8,0-1.3-0.5-1.3-1.3
			V72.4c0-0.8,0.4-1.3,1.3-1.3H216.6z M216.7,93.2c2,0,3-0.3,3-2.8c0,0,0-9.2,0-9.2c0-2.6-1-2.8-3-2.8h-2.3c-0.8,0-1.3,0.4-1.3,1.3
			v12.4c0,0.8,0.5,1.3,1.3,1.3H216.7z"/>
	</g>
	<g>
		<g>
			<g>
				<path fill="#232323" d="M108.2,1.8c1.6-0.1,3.1-0.3,4.5-0.4c1.4-0.1,2.7-0.2,4-0.3c1.3-0.1,2.5-0.2,3.7-0.2
					c1.2-0.1,2.4-0.1,3.7-0.2c1.3-0.1,2.6-0.1,4-0.2c1.4-0.1,2.9-0.1,4.5-0.2c0,0.5,0,0.8,0,1.3c-1.4,0-2.5,0.1-3.6,0.1
					c-1.1,0-2.2,0.1-3.6,0.2c0.1,1.8,0.2,3.4,0.3,5c0.1,1.6,0.2,3.1,0.2,4.6c0.1,1.5,0.1,2.9,0.2,4.2c0.1,1.4,0.1,2.7,0.2,4
					c0.1,1.3,0.1,2.7,0.2,4c0.1,1.3,0.1,2.7,0.2,4c0.1,1.4,0.1,2.8,0.2,4.2c0.1,1.5,0.2,3,0.2,4.6c0.1,1.6,0.2,3.3,0.3,5
					c0.9,0,1.3-0.1,2.2-0.1c1.7-0.1,3.3-0.4,4.7-1s2.6-1.4,3.6-2.5c0.7-0.7,1.4-1.6,2.1-2.5c0.7-1,1.4-2.1,2.1-3.3
					c0.7-1.2,1.4-2.6,2.1-4c0.5,0,0.8,0,1.3,0c-0.2,1.9-0.3,3.5-0.4,4.9c-0.1,1.5-0.2,2.8-0.3,4.3c-0.1,1.5-0.2,3.1-0.4,4.9
					c-1.9,0-3.6,0-5.2,0.1c-1.6,0-3.2,0.1-4.7,0.1c-1.5,0-2.9,0.1-4.3,0.2s-2.8,0.1-4.2,0.2c-1.4,0.1-2.8,0.2-4.3,0.3
					c-1.5,0.1-3,0.2-4.6,0.3c-1.6,0.1-3.4,0.3-5.2,0.4c0-0.5-0.1-0.8-0.1-1.3c1.5-0.1,2.2-0.2,3.6-0.3c-0.1-1.8-0.3-3.4-0.4-5
					c-0.1-1.6-0.3-3.1-0.4-4.6c-0.1-1.5-0.2-2.9-0.3-4.2c-0.1-1.4-0.2-2.7-0.3-4c-0.1-1.3-0.2-2.6-0.3-4c-0.1-1.3-0.2-2.7-0.3-4
					c-0.1-1.4-0.2-2.8-0.3-4.2c-0.1-1.5-0.2-3-0.4-4.6c-0.1-1.6-0.3-3.3-0.4-5c-1.6,0.1-2.4,0.2-4,0.3
					C108.2,2.6,108.2,2.3,108.2,1.8z"/>
				<path fill="#232323" d="M193.6,23c-0.2,1.7-0.5,3.2-0.8,4.6c-0.4,1.4-0.8,2.8-1.3,4c-0.5,1.2-1.1,2.3-1.8,3.3s-1.5,1.9-2.3,2.7
					c-0.9,0.8-1.8,1.4-2.8,2c-1.2,0.7-2.4,1.2-3.8,1.7c-1.4,0.5-2.8,0.8-4.3,1.1c-1.5,0.3-3.2,0.4-4.9,0.5c-1.7,0.1-3.5,0.1-5.5,0
					c-1.7-0.1-3.3-0.1-4.7-0.2c-1.4,0-2.7-0.1-4-0.1c-1.3,0-2.6-0.1-4-0.1c-1.4,0-2.9,0-4.7,0c0-0.5,0-0.7,0-1.2c1.6,0,2.4,0,4.1,0
					c0-1.8,0-3.5,0.1-5.1c0-1.6,0-3.1,0.1-4.6c0-1.5,0-2.9,0.1-4.3c0-1.4,0-2.7,0.1-4.1c0-1.3,0-2.7,0.1-4c0-1.3,0-2.7,0.1-4.1
					c0-1.4,0-2.8,0.1-4.3c0-1.5,0-3,0.1-4.6c0-1.6,0-3.3,0.1-5.1c-1.8,0-2.7,0-4.5,0c0-0.5,0-0.7,0-1.2c1.7,0,3.2,0,4.6,0
					c1.4,0,2.7,0,4,0.1c1.3,0,2.5,0.1,3.8,0.1c1.3,0,2.6,0.1,4,0.1c1.4,0.1,2.9,0.1,4.6,0.2c1.7,0.1,3.4,0.2,5,0.5
					c1.6,0.2,3,0.5,4.4,0.9c1.4,0.4,2.6,0.8,3.8,1.2c1.2,0.5,2.3,1,3.3,1.6c1,0.6,1.9,1.3,2.7,2c1,0.9,1.8,1.9,2.5,3
					c0.7,1.1,1.2,2.4,1.6,3.7c0.4,1.4,0.6,2.8,0.7,4.4C193.9,19.5,193.8,21.2,193.6,23z M164.7,41.7c0.9,0,1.4,0.1,2.3,0.1
					c1.4,0.1,2.6,0,3.8-0.3c1.1-0.3,2.2-0.7,3.1-1.3c0.9-0.6,1.7-1.3,2.4-2.3c0.5-0.7,1-1.5,1.4-2.4c0.4-0.9,0.8-2,1.1-3.2
					c0.3-1.2,0.6-2.5,0.8-3.9c0.2-1.4,0.4-3,0.5-4.7c0.1-1.4,0.2-2.1,0.3-3.5c0.2-2.3,0.2-4.3,0.1-6.2c-0.1-1.8-0.3-3.5-0.7-4.9
					c-0.4-1.4-0.9-2.6-1.6-3.6c-0.7-1-1.5-1.7-2.4-2.2c-0.9-0.5-2-0.9-3.3-1.2c-1.3-0.3-2.8-0.5-4.5-0.6c-0.7,0-1,0-1.6-0.1
					c-0.1,1.8-0.1,3.5-0.2,5.1c-0.1,1.6-0.1,3.1-0.2,4.6c-0.1,1.5-0.1,2.9-0.2,4.3c-0.1,1.4-0.1,2.7-0.2,4.1c-0.1,1.3-0.1,2.7-0.2,4
					c-0.1,1.3-0.1,2.7-0.2,4.1c-0.1,1.4-0.1,2.8-0.2,4.3c-0.1,1.5-0.1,3-0.2,4.6C164.9,38.2,164.8,39.9,164.7,41.7z"/>
				<path fill="#232323" d="M200.1,3.1c1.8,0.2,3.4,0.4,5,0.6c1.6,0.2,3.1,0.4,4.5,0.6c1.4,0.2,2.8,0.4,4.1,0.6
					c1.3,0.2,2.7,0.4,4,0.6c1.3,0.2,2.6,0.4,4,0.7c1.3,0.2,2.7,0.5,4.1,0.7c1.4,0.3,2.9,0.5,4.5,0.8c1.6,0.3,3.2,0.6,4.9,1
					c-0.2,1.6-0.4,2.9-0.6,4.1c-0.2,1.2-0.3,2.4-0.5,3.6c-0.2,1.2-0.4,2.6-0.6,4.1c-0.5-0.1-0.7-0.1-1.2-0.2c-0.3-1.5-0.7-2.8-1.1-4
					c-0.4-1.2-0.9-2.2-1.4-3.1c-0.5-0.9-1.1-1.7-1.6-2.3c-0.6-0.6-1.3-1.2-2.1-1.7c-0.8-0.5-1.8-0.9-2.9-1.3
					c-1.1-0.4-2.3-0.7-3.6-0.9C218.4,7.1,218,7,217,6.9c-0.3,1.9-0.6,3.5-0.8,5c-0.2,1.5-0.5,2.9-0.7,4.3c-0.2,1.4-0.4,2.8-0.7,4.3
					s-0.5,3.1-0.8,5c0.9,0.1,1.3,0.2,2.2,0.4c1,0.2,2,0.1,2.9-0.1s1.8-0.6,2.6-1.2c0.8-0.6,1.6-1.3,2.2-2.2c0.7-0.9,1.2-1.9,1.7-3
					c0.4,0.1,0.6,0.1,1,0.2c-0.3,1.8-0.6,3.3-0.9,4.7c-0.3,1.4-0.5,2.8-0.8,4.1c-0.2,1.3-0.5,2.6-0.8,4.1c-0.3,1.4-0.6,3-0.9,4.7
					c-0.4-0.1-0.6-0.1-1.1-0.2c-0.1-1.6-0.3-2.9-0.6-4.1s-0.7-2.1-1.3-2.9c-0.5-0.8-1.2-1.4-2.1-1.8c-0.8-0.5-1.8-0.8-3-1
					c-0.6-0.1-0.9-0.2-1.5-0.2c-0.2,1.5-0.5,2.9-0.7,4.2c-0.2,1.3-0.4,2.5-0.6,3.7c-0.2,1.2-0.4,2.3-0.6,3.5
					c-0.2,1.2-0.4,2.4-0.6,3.7c-0.2,1.3-0.4,2.7-0.7,4.2c0.9,0.1,1.4,0.2,2.3,0.4c1.2,0.2,2.5,0.3,3.6,0.2c1.2,0,2.3-0.2,3.4-0.5
					c1.1-0.3,2.1-0.7,3.2-1.3c1-0.6,2-1.2,2.8-1.9c0.9-0.7,1.7-1.5,2.4-2.4c0.7-0.9,1.4-1.9,1.9-2.9c0.5,0.1,0.8,0.2,1.3,0.3
					c-0.4,1.7-0.8,3.1-1.1,4.5c-0.3,1.3-0.6,2.6-1,3.9c-0.3,1.3-0.7,2.8-1.1,4.5c-1.7-0.3-3.2-0.7-4.7-0.9c-1.5-0.3-2.9-0.6-4.2-0.8
					s-2.7-0.5-3.9-0.7c-1.3-0.2-2.5-0.4-3.8-0.6c-1.3-0.2-2.5-0.4-3.8-0.6c-1.3-0.2-2.6-0.4-4-0.6c-1.4-0.2-2.8-0.4-4.3-0.6
					c-1.5-0.2-3.1-0.4-4.7-0.6c0.1-0.5,0.1-0.8,0.2-1.3c1.4,0.2,2.2,0.3,3.6,0.5c0.2-1.8,0.4-3.4,0.6-5c0.2-1.6,0.4-3.1,0.6-4.5
					c0.2-1.5,0.4-2.8,0.5-4.2c0.2-1.4,0.3-2.7,0.5-4c0.2-1.3,0.3-2.6,0.5-4c0.2-1.3,0.3-2.7,0.5-4c0.2-1.4,0.4-2.8,0.5-4.2
					c0.2-1.5,0.4-3,0.6-4.5c0.2-1.6,0.4-3.2,0.6-5c-1.6-0.2-2.4-0.3-4-0.5C200,3.9,200,3.7,200.1,3.1z"/>
				<path fill="#232323" d="M279.5,21.4c-0.6,1.8-1.1,3.4-1.6,5c-0.5,1.6-1,3.1-1.4,4.5c-0.5,1.4-0.9,2.8-1.3,4.2
					c-0.4,1.4-0.8,2.7-1.3,4c-0.4,1.3-0.8,2.6-1.2,3.9c-0.4,1.3-0.8,2.6-1.3,4c-0.4,1.4-0.9,2.8-1.3,4.2c-0.5,1.4-0.9,3-1.4,4.5
					c-0.5,1.6-1,3.2-1.6,5c-1.7-0.5-2.9-0.9-4.2-1.3c-1.2-0.4-2.5-0.8-4.2-1.2c-0.4-1.7-0.7-3.4-1.1-5c-0.4-1.6-0.7-3.1-1.1-4.6
					c-0.4-1.5-0.7-2.9-1-4.3c-0.3-1.4-0.7-2.7-1-4.1c-0.3-1.3-0.7-2.6-1-3.9c-0.3-1.3-0.7-2.6-1.1-3.9c-0.4-1.3-0.7-2.7-1.1-4
					c-0.4-1.4-0.8-2.8-1.2-4.3c-0.4-1.5-0.9-3-1.4-4.6c-0.5-1.6-1-3.2-1.5-5c-0.4,1.9-0.8,3.6-1.2,5.2c-0.4,1.7-0.8,3.2-1.1,4.7
					c-0.4,1.5-0.7,3-1,4.4c-0.3,1.4-0.7,2.8-1,4.2c-0.3,1.4-0.7,2.8-1,4.2c-0.3,1.4-0.7,2.9-1,4.4c-0.4,1.5-0.7,3.1-1.1,4.7
					c-0.4,1.7-0.8,3.4-1.2,5.2c1.3,0.3,2,0.5,3.3,0.8c-0.1,0.4-0.2,0.7-0.3,1.1c-1.6-0.4-2.9-0.7-4.1-1c-1.2-0.3-2.5-0.6-4.1-0.9
					c0.1-0.5,0.1-0.7,0.2-1.1c1.3,0.3,2,0.4,3.3,0.8c0.4-1.7,0.8-3.4,1.1-5c0.4-1.6,0.7-3.1,1-4.5c0.3-1.4,0.6-2.8,1-4.2
					c0.3-1.4,0.6-2.7,0.9-4c0.3-1.3,0.6-2.6,0.9-3.9c0.3-1.3,0.6-2.6,0.9-4c0.3-1.4,0.6-2.7,1-4.2c0.3-1.4,0.7-2.9,1-4.5
					c0.4-1.6,0.7-3.2,1.1-5c-1.5-0.3-2.2-0.5-3.7-0.8c0.1-0.5,0.1-0.7,0.2-1.1c1.8,0.4,3.5,0.8,5,1.1c1.5,0.3,2.9,0.7,4.3,1
					c1.4,0.3,2.8,0.7,4.2,1.1c1.5,0.4,3.1,0.8,4.9,1.3c0.5,1.7,0.9,3.3,1.3,4.8s0.8,3,1.1,4.3c0.4,1.4,0.7,2.7,1,4
					c0.3,1.3,0.6,2.6,1,3.9c0.3,1.3,0.6,2.6,0.9,3.9c0.3,1.3,0.6,2.6,0.9,4c0.3,1.4,0.6,2.8,1,4.3c0.3,1.5,0.7,3.1,1,4.8
					c0.5-1.6,1-3.1,1.4-4.5c0.4-1.4,0.8-2.7,1.2-4c0.4-1.3,0.8-2.5,1.2-3.7c0.4-1.2,0.7-2.4,1.1-3.6c0.4-1.2,0.8-2.4,1.2-3.7
					c0.4-1.3,0.8-2.6,1.2-4c0.4-1.4,0.9-2.9,1.4-4.5c-1.4-0.4-2.2-0.7-3.6-1.1c0.1-0.4,0.2-0.7,0.3-1.1c1.8,0.5,3.2,1,4.5,1.4
					c1.4,0.4,2.7,0.9,4.5,1.4c-0.1,0.4-0.2,0.7-0.4,1.1C281.7,22.1,280.9,21.9,279.5,21.4z"/>
				<path fill="#232323" d="M45.7,55.2c2-0.5,3.1-1.2,3.5-2c0.4-0.8,0.3-2.1-0.1-3.8c-0.4-1.5-0.7-2.8-1-4c-0.3-1.2-0.6-2.3-0.9-3.5
					c-0.3-1.2-0.6-2.5-1-4c-1.6,0.4-2.4,0.6-4,1c-0.1-0.5-0.2-0.8-0.3-1.3c1.8-0.5,3.4-0.9,4.9-1.3c1.5-0.4,2.8-0.7,4.2-1
					c1.4-0.3,2.7-0.6,4.2-1c1.5-0.3,3.1-0.7,4.9-1.1c0.1,0.5,0.2,0.8,0.3,1.3c-1,0.2-1.5,0.3-2.5,0.5c0.4,1.7,0.7,3.1,1,4.5
					s0.6,2.6,0.9,3.9c0.3,1.3,0.6,2.5,0.9,3.9c0.3,1.4,0.6,2.8,1,4.5C61.2,52,61,52,60.6,52.1c-0.9-0.8-2.1-1.1-3.4-0.8
					c-0.3,0.1-0.8,0.3-1.6,0.7c-0.8,0.4-1.9,0.9-3.2,1.6c-1.3,0.7-2.5,1.3-3.7,1.8c-1.1,0.5-2.2,0.9-3.2,1.1
					c-1.6,0.4-3.2,0.7-4.7,0.9c-1.5,0.2-2.9,0.3-4.3,0.2c-1.4-0.1-2.7-0.2-4-0.6c-1.3-0.3-2.5-0.8-3.6-1.3c-1.2-0.6-2.2-1.3-3.3-2.1
					c-1-0.8-2-1.8-2.8-3c-0.9-1.1-1.7-2.4-2.4-3.8c-0.7-1.4-1.3-3-1.9-4.7c-0.6-1.7-1-3.3-1.2-4.9c-0.2-1.6-0.3-3.1-0.2-4.6
					c0.1-1.5,0.3-2.9,0.7-4.2c0.4-1.4,1-2.7,1.7-3.9c0.7-1.2,1.6-2.4,2.6-3.4c1-1.1,2.1-2,3.4-2.9c1.2-0.9,2.6-1.6,4.1-2.3
					c1.5-0.7,3.1-1.2,4.9-1.7c1.4-0.4,2.7-0.6,4.1-0.8c1.4-0.2,2.8-0.3,4.3-0.3c1.4,0,2.6-0.1,3.4-0.1c0.8,0,1.4-0.1,1.6-0.1
					c0.4-0.1,0.8-0.3,0.9-0.5c0.2-0.2,0.4-0.6,0.5-1.1c0.3-0.1,0.4-0.1,0.7-0.2c0.5,1.7,0.8,3.1,1.2,4.4c0.4,1.3,0.7,2.5,1,3.9
					c0.4,1.3,0.7,2.7,1.2,4.4c-0.5,0.1-0.7,0.2-1.2,0.3c-1-1.1-2-2.1-3-3.1c-1-0.9-1.9-1.8-2.9-2.5c-0.9-0.7-1.9-1.4-2.8-1.9
					c-1.4-0.8-2.7-1.4-4.1-1.6c-1.4-0.2-2.7-0.2-4.1,0.2c-1.4,0.4-2.5,0.9-3.5,1.7c-1,0.8-1.7,1.7-2.2,2.9c-0.5,1.2-0.9,2.5-1,4.1
					c-0.1,1.5-0.1,3.3,0.2,5.2c0.3,1.9,0.8,4.1,1.4,6.4c0.5,1.8,0.8,2.8,1.3,4.6c0.6,1.9,1.2,3.7,1.8,5.3c0.6,1.6,1.3,3,2,4.2
					c0.7,1.2,1.5,2.2,2.3,3.1c1.2,1.3,2.4,2.1,3.7,2.6C42.9,55.5,44.3,55.5,45.7,55.2z"/>
				<path fill="#232323" d="M87.9,47.6C86.2,47.9,84.6,48,83,48c-1.5,0-2.9-0.1-4.3-0.3c-1.3-0.2-2.6-0.6-3.8-1.1
					c-1.2-0.5-2.3-1.1-3.3-1.8c-1-0.7-2-1.6-2.8-2.6c-0.9-1-1.6-2.1-2.3-3.3c-0.7-1.2-1.3-2.5-1.8-4c-0.5-1.5-1-3-1.3-4.7
					c-0.3-1.7-0.6-3.3-0.6-4.9c-0.1-1.6,0-3.1,0.2-4.5c0.2-1.4,0.6-2.8,1.1-4.1c0.5-1.3,1.1-2.5,1.9-3.7c0.8-1.2,1.7-2.2,2.8-3.2
					c1.1-1,2.2-1.8,3.6-2.5C73.6,6.6,75,6,76.6,5.5c1.6-0.5,3.3-0.9,5.1-1.2c1.8-0.3,3.6-0.4,5.2-0.4c1.6,0,3.2,0.2,4.6,0.5
					c1.4,0.3,2.8,0.7,4,1.3c1.2,0.6,2.4,1.3,3.4,2.1c1,0.8,1.9,1.8,2.8,2.9c0.8,1.1,1.5,2.2,2.1,3.5c0.6,1.3,1.1,2.7,1.5,4.2
					c0.4,1.5,0.7,3.1,0.8,4.9c0.2,1.7,0.2,3.4,0.2,4.9c-0.1,1.6-0.3,3-0.6,4.4c-0.3,1.4-0.7,2.7-1.2,3.9c-0.5,1.2-1.2,2.4-1.9,3.4
					c-0.8,1.1-1.6,2-2.6,2.8c-1,0.8-2.1,1.6-3.3,2.2c-1.2,0.6-2.6,1.2-4,1.6C91.1,47,89.6,47.4,87.9,47.6z M93.1,27.3
					c-0.2-1.8-0.4-2.7-0.6-4.5c-0.3-2.4-0.7-4.6-1-6.4c-0.3-1.8-0.7-3.4-1-4.6c-0.3-1.2-0.7-2.1-1-2.7c-0.6-1-1.3-1.9-2-2.5
					c-0.7-0.6-1.5-1-2.4-1.1c-1-0.2-2.2-0.2-3.5,0c-1.3,0.2-2.5,0.5-3.4,1c-0.9,0.5-1.6,1.2-2.1,2.1c-0.5,0.9-0.9,1.8-1.1,2.8
					c-0.2,0.9-0.3,2.2-0.3,3.9c0,0.8,0.1,1.7,0.2,2.7c0.1,1,0.3,2.2,0.5,3.4c0.2,1.3,0.4,2.6,0.7,4.1c0.3,1.7,0.4,2.6,0.7,4.3
					c0.3,1.6,0.6,3.1,0.8,4.4c0.3,1.3,0.5,2.4,0.8,3.4s0.5,1.8,0.8,2.5c0.7,2,1.5,3.4,2.2,4.2c0.8,0.9,1.7,1.5,2.8,1.8
					c1.1,0.3,2.2,0.4,3.6,0.2c1.6-0.2,2.9-0.8,3.8-1.6c1-0.8,1.6-1.9,1.9-3.3c0.2-0.9,0.3-2.1,0.4-3.4c0-1.4,0-2.9-0.1-4.7
					C93.6,31.5,93.4,29.5,93.1,27.3z"/>
			</g>
		</g>
		<defs>
			<filter id="Adobe_OpacityMaskFilter" filterUnits="userSpaceOnUse" x="17.1" y="0" width="266.3" height="60.9">
				<feFlood  style="flood-color:white;flood-opacity:1" result="back"/>
				<feBlend  in="SourceGraphic" in2="back" mode="normal"/>
			</filter>
		</defs>
		<mask maskUnits="userSpaceOnUse" x="17.1" y="0" width="266.3" height="60.9" id="SVGID_6_">
			<g filter="url(#Adobe_OpacityMaskFilter)">
				<image overflow="visible" width="272" height="66" xlink:href="790849D7.jpg"  transform="matrix(1 0 0 1 14.2261 -2.2281)">
				</image>
			</g>
		</mask>
		<g opacity="0.75" mask="url(#SVGID_6_)">
			<g>
				<path d="M108.2,1.8c1.6-0.1,3.1-0.3,4.5-0.4c1.4-0.1,2.7-0.2,4-0.3c1.3-0.1,2.5-0.2,3.7-0.2c1.2-0.1,2.4-0.1,3.7-0.2
					c1.3-0.1,2.6-0.1,4-0.2c1.4-0.1,2.9-0.1,4.5-0.2c0,0.5,0,0.8,0,1.3c-1.4,0-2.5,0.1-3.6,0.1c-1.1,0-2.2,0.1-3.6,0.2
					c0.1,1.8,0.2,3.4,0.3,5c0.1,1.6,0.2,3.1,0.2,4.6c0.1,1.5,0.1,2.9,0.2,4.2c0.1,1.4,0.1,2.7,0.2,4c0.1,1.3,0.1,2.7,0.2,4
					c0.1,1.3,0.1,2.7,0.2,4c0.1,1.4,0.1,2.8,0.2,4.2c0.1,1.5,0.2,3,0.2,4.6c0.1,1.6,0.2,3.3,0.3,5c0.9,0,1.3-0.1,2.2-0.1
					c1.7-0.1,3.3-0.4,4.7-1s2.6-1.4,3.6-2.5c0.7-0.7,1.4-1.6,2.1-2.5c0.7-1,1.4-2.1,2.1-3.3c0.7-1.2,1.4-2.6,2.1-4
					c0.5,0,0.8,0,1.3,0c-0.2,1.9-0.3,3.5-0.4,4.9c-0.1,1.5-0.2,2.8-0.3,4.3c-0.1,1.5-0.2,3.1-0.4,4.9c-1.9,0-3.6,0-5.2,0.1
					c-1.6,0-3.2,0.1-4.7,0.1c-1.5,0-2.9,0.1-4.3,0.2s-2.8,0.1-4.2,0.2c-1.4,0.1-2.8,0.2-4.3,0.3c-1.5,0.1-3,0.2-4.6,0.3
					c-1.6,0.1-3.4,0.3-5.2,0.4c0-0.5-0.1-0.8-0.1-1.3c1.5-0.1,2.2-0.2,3.6-0.3c-0.1-1.8-0.3-3.4-0.4-5c-0.1-1.6-0.3-3.1-0.4-4.6
					c-0.1-1.5-0.2-2.9-0.3-4.2c-0.1-1.4-0.2-2.7-0.3-4c-0.1-1.3-0.2-2.6-0.3-4c-0.1-1.3-0.2-2.7-0.3-4c-0.1-1.4-0.2-2.8-0.3-4.2
					c-0.1-1.5-0.2-3-0.4-4.6c-0.1-1.6-0.3-3.3-0.4-5c-1.6,0.1-2.4,0.2-4,0.3C108.2,2.6,108.2,2.3,108.2,1.8z"/>
				<path d="M193.6,23c-0.2,1.7-0.5,3.2-0.8,4.6c-0.4,1.4-0.8,2.8-1.3,4c-0.5,1.2-1.1,2.3-1.8,3.3s-1.5,1.9-2.3,2.7
					c-0.9,0.8-1.8,1.4-2.8,2c-1.2,0.7-2.4,1.2-3.8,1.7c-1.4,0.5-2.8,0.8-4.3,1.1c-1.5,0.3-3.2,0.4-4.9,0.5c-1.7,0.1-3.5,0.1-5.5,0
					c-1.7-0.1-3.3-0.1-4.7-0.2c-1.4,0-2.7-0.1-4-0.1c-1.3,0-2.6-0.1-4-0.1c-1.4,0-2.9,0-4.7,0c0-0.5,0-0.7,0-1.2c1.6,0,2.4,0,4.1,0
					c0-1.8,0-3.5,0.1-5.1c0-1.6,0-3.1,0.1-4.6c0-1.5,0-2.9,0.1-4.3c0-1.4,0-2.7,0.1-4.1c0-1.3,0-2.7,0.1-4c0-1.3,0-2.7,0.1-4.1
					c0-1.4,0-2.8,0.1-4.3c0-1.5,0-3,0.1-4.6c0-1.6,0-3.3,0.1-5.1c-1.8,0-2.7,0-4.5,0c0-0.5,0-0.7,0-1.2c1.7,0,3.2,0,4.6,0
					c1.4,0,2.7,0,4,0.1c1.3,0,2.5,0.1,3.8,0.1c1.3,0,2.6,0.1,4,0.1c1.4,0.1,2.9,0.1,4.6,0.2c1.7,0.1,3.4,0.2,5,0.5
					c1.6,0.2,3,0.5,4.4,0.9c1.4,0.4,2.6,0.8,3.8,1.2c1.2,0.5,2.3,1,3.3,1.6c1,0.6,1.9,1.3,2.7,2c1,0.9,1.8,1.9,2.5,3
					c0.7,1.1,1.2,2.4,1.6,3.7c0.4,1.4,0.6,2.8,0.7,4.4C193.9,19.5,193.8,21.2,193.6,23z M164.7,41.7c0.9,0,1.4,0.1,2.3,0.1
					c1.4,0.1,2.6,0,3.8-0.3c1.1-0.3,2.2-0.7,3.1-1.3c0.9-0.6,1.7-1.3,2.4-2.3c0.5-0.7,1-1.5,1.4-2.4c0.4-0.9,0.8-2,1.1-3.2
					c0.3-1.2,0.6-2.5,0.8-3.9c0.2-1.4,0.4-3,0.5-4.7c0.1-1.4,0.2-2.1,0.3-3.5c0.2-2.3,0.2-4.3,0.1-6.2c-0.1-1.8-0.3-3.5-0.7-4.9
					c-0.4-1.4-0.9-2.6-1.6-3.6c-0.7-1-1.5-1.7-2.4-2.2c-0.9-0.5-2-0.9-3.3-1.2c-1.3-0.3-2.8-0.5-4.5-0.6c-0.7,0-1,0-1.6-0.1
					c-0.1,1.8-0.1,3.5-0.2,5.1c-0.1,1.6-0.1,3.1-0.2,4.6c-0.1,1.5-0.1,2.9-0.2,4.3c-0.1,1.4-0.1,2.7-0.2,4.1c-0.1,1.3-0.1,2.7-0.2,4
					c-0.1,1.3-0.1,2.7-0.2,4.1c-0.1,1.4-0.1,2.8-0.2,4.3c-0.1,1.5-0.1,3-0.2,4.6C164.9,38.2,164.8,39.9,164.7,41.7z"/>
				<path d="M200.1,3.1c1.8,0.2,3.4,0.4,5,0.6c1.6,0.2,3.1,0.4,4.5,0.6c1.4,0.2,2.8,0.4,4.1,0.6c1.3,0.2,2.7,0.4,4,0.6
					c1.3,0.2,2.6,0.4,4,0.7c1.3,0.2,2.7,0.5,4.1,0.7c1.4,0.3,2.9,0.5,4.5,0.8c1.6,0.3,3.2,0.6,4.9,1c-0.2,1.6-0.4,2.9-0.6,4.1
					c-0.2,1.2-0.3,2.4-0.5,3.6c-0.2,1.2-0.4,2.6-0.6,4.1c-0.5-0.1-0.7-0.1-1.2-0.2c-0.3-1.5-0.7-2.8-1.1-4c-0.4-1.2-0.9-2.2-1.4-3.1
					c-0.5-0.9-1.1-1.7-1.6-2.3c-0.6-0.6-1.3-1.2-2.1-1.7c-0.8-0.5-1.8-0.9-2.9-1.3c-1.1-0.4-2.3-0.7-3.6-0.9
					C218.4,7.1,218,7,217,6.9c-0.3,1.9-0.6,3.5-0.8,5c-0.2,1.5-0.5,2.9-0.7,4.3c-0.2,1.4-0.4,2.8-0.7,4.3s-0.5,3.1-0.8,5
					c0.9,0.1,1.3,0.2,2.2,0.4c1,0.2,2,0.1,2.9-0.1s1.8-0.6,2.6-1.2c0.8-0.6,1.6-1.3,2.2-2.2c0.7-0.9,1.2-1.9,1.7-3
					c0.4,0.1,0.6,0.1,1,0.2c-0.3,1.8-0.6,3.3-0.9,4.7c-0.3,1.4-0.5,2.8-0.8,4.1c-0.2,1.3-0.5,2.6-0.8,4.1c-0.3,1.4-0.6,3-0.9,4.7
					c-0.4-0.1-0.6-0.1-1.1-0.2c-0.1-1.6-0.3-2.9-0.6-4.1s-0.7-2.1-1.3-2.9c-0.5-0.8-1.2-1.4-2.1-1.8c-0.8-0.5-1.8-0.8-3-1
					c-0.6-0.1-0.9-0.2-1.5-0.2c-0.2,1.5-0.5,2.9-0.7,4.2c-0.2,1.3-0.4,2.5-0.6,3.7c-0.2,1.2-0.4,2.3-0.6,3.5
					c-0.2,1.2-0.4,2.4-0.6,3.7c-0.2,1.3-0.4,2.7-0.7,4.2c0.9,0.1,1.4,0.2,2.3,0.4c1.2,0.2,2.5,0.3,3.6,0.2c1.2,0,2.3-0.2,3.4-0.5
					c1.1-0.3,2.1-0.7,3.2-1.3c1-0.6,2-1.2,2.8-1.9c0.9-0.7,1.7-1.5,2.4-2.4c0.7-0.9,1.4-1.9,1.9-2.9c0.5,0.1,0.8,0.2,1.3,0.3
					c-0.4,1.7-0.8,3.1-1.1,4.5c-0.3,1.3-0.6,2.6-1,3.9c-0.3,1.3-0.7,2.8-1.1,4.5c-1.7-0.3-3.2-0.7-4.7-0.9c-1.5-0.3-2.9-0.6-4.2-0.8
					s-2.7-0.5-3.9-0.7c-1.3-0.2-2.5-0.4-3.8-0.6c-1.3-0.2-2.5-0.4-3.8-0.6c-1.3-0.2-2.6-0.4-4-0.6c-1.4-0.2-2.8-0.4-4.3-0.6
					c-1.5-0.2-3.1-0.4-4.7-0.6c0.1-0.5,0.1-0.8,0.2-1.3c1.4,0.2,2.2,0.3,3.6,0.5c0.2-1.8,0.4-3.4,0.6-5c0.2-1.6,0.4-3.1,0.6-4.5
					c0.2-1.5,0.4-2.8,0.5-4.2c0.2-1.4,0.3-2.7,0.5-4c0.2-1.3,0.3-2.6,0.5-4c0.2-1.3,0.3-2.7,0.5-4c0.2-1.4,0.4-2.8,0.5-4.2
					c0.2-1.5,0.4-3,0.6-4.5c0.2-1.6,0.4-3.2,0.6-5c-1.6-0.2-2.4-0.3-4-0.5C200,3.9,200,3.7,200.1,3.1z"/>
				<path d="M279.5,21.4c-0.6,1.8-1.1,3.4-1.6,5c-0.5,1.6-1,3.1-1.4,4.5c-0.5,1.4-0.9,2.8-1.3,4.2c-0.4,1.4-0.8,2.7-1.3,4
					c-0.4,1.3-0.8,2.6-1.2,3.9c-0.4,1.3-0.8,2.6-1.3,4c-0.4,1.4-0.9,2.8-1.3,4.2c-0.5,1.4-0.9,3-1.4,4.5c-0.5,1.6-1,3.2-1.6,5
					c-1.7-0.5-2.9-0.9-4.2-1.3c-1.2-0.4-2.5-0.8-4.2-1.2c-0.4-1.7-0.7-3.4-1.1-5c-0.4-1.6-0.7-3.1-1.1-4.6c-0.4-1.5-0.7-2.9-1-4.3
					c-0.3-1.4-0.7-2.7-1-4.1c-0.3-1.3-0.7-2.6-1-3.9c-0.3-1.3-0.7-2.6-1.1-3.9c-0.4-1.3-0.7-2.7-1.1-4c-0.4-1.4-0.8-2.8-1.2-4.3
					c-0.4-1.5-0.9-3-1.4-4.6c-0.5-1.6-1-3.2-1.5-5c-0.4,1.9-0.8,3.6-1.2,5.2c-0.4,1.7-0.8,3.2-1.1,4.7c-0.4,1.5-0.7,3-1,4.4
					c-0.3,1.4-0.7,2.8-1,4.2c-0.3,1.4-0.7,2.8-1,4.2c-0.3,1.4-0.7,2.9-1,4.4c-0.4,1.5-0.7,3.1-1.1,4.7c-0.4,1.7-0.8,3.4-1.2,5.2
					c1.3,0.3,2,0.5,3.3,0.8c-0.1,0.4-0.2,0.7-0.3,1.1c-1.6-0.4-2.9-0.7-4.1-1c-1.2-0.3-2.5-0.6-4.1-0.9c0.1-0.5,0.1-0.7,0.2-1.1
					c1.3,0.3,2,0.4,3.3,0.8c0.4-1.7,0.8-3.4,1.1-5c0.4-1.6,0.7-3.1,1-4.5c0.3-1.4,0.6-2.8,1-4.2c0.3-1.4,0.6-2.7,0.9-4
					c0.3-1.3,0.6-2.6,0.9-3.9c0.3-1.3,0.6-2.6,0.9-4c0.3-1.4,0.6-2.7,1-4.2c0.3-1.4,0.7-2.9,1-4.5c0.4-1.6,0.7-3.2,1.1-5
					c-1.5-0.3-2.2-0.5-3.7-0.8c0.1-0.5,0.1-0.7,0.2-1.1c1.8,0.4,3.5,0.8,5,1.1c1.5,0.3,2.9,0.7,4.3,1c1.4,0.3,2.8,0.7,4.2,1.1
					c1.5,0.4,3.1,0.8,4.9,1.3c0.5,1.7,0.9,3.3,1.3,4.8s0.8,3,1.1,4.3c0.4,1.4,0.7,2.7,1,4c0.3,1.3,0.6,2.6,1,3.9
					c0.3,1.3,0.6,2.6,0.9,3.9c0.3,1.3,0.6,2.6,0.9,4c0.3,1.4,0.6,2.8,1,4.3c0.3,1.5,0.7,3.1,1,4.8c0.5-1.6,1-3.1,1.4-4.5
					c0.4-1.4,0.8-2.7,1.2-4c0.4-1.3,0.8-2.5,1.2-3.7c0.4-1.2,0.7-2.4,1.1-3.6c0.4-1.2,0.8-2.4,1.2-3.7c0.4-1.3,0.8-2.6,1.2-4
					c0.4-1.4,0.9-2.9,1.4-4.5c-1.4-0.4-2.2-0.7-3.6-1.1c0.1-0.4,0.2-0.7,0.3-1.1c1.8,0.5,3.2,1,4.5,1.4c1.4,0.4,2.7,0.9,4.5,1.4
					c-0.1,0.4-0.2,0.7-0.4,1.1C281.7,22.1,280.9,21.9,279.5,21.4z"/>
				<path d="M45.7,55.2c2-0.5,3.1-1.2,3.5-2c0.4-0.8,0.3-2.1-0.1-3.8c-0.4-1.5-0.7-2.8-1-4c-0.3-1.2-0.6-2.3-0.9-3.5
					c-0.3-1.2-0.6-2.5-1-4c-1.6,0.4-2.4,0.6-4,1c-0.1-0.5-0.2-0.8-0.3-1.3c1.8-0.5,3.4-0.9,4.9-1.3c1.5-0.4,2.8-0.7,4.2-1
					c1.4-0.3,2.7-0.6,4.2-1c1.5-0.3,3.1-0.7,4.9-1.1c0.1,0.5,0.2,0.8,0.3,1.3c-1,0.2-1.5,0.3-2.5,0.5c0.4,1.7,0.7,3.1,1,4.5
					s0.6,2.6,0.9,3.9c0.3,1.3,0.6,2.5,0.9,3.9c0.3,1.4,0.6,2.8,1,4.5C61.2,52,61,52,60.6,52.1c-0.9-0.8-2.1-1.1-3.4-0.8
					c-0.3,0.1-0.8,0.3-1.6,0.7c-0.8,0.4-1.9,0.9-3.2,1.6c-1.3,0.7-2.5,1.3-3.7,1.8c-1.1,0.5-2.2,0.9-3.2,1.1
					c-1.6,0.4-3.2,0.7-4.7,0.9c-1.5,0.2-2.9,0.3-4.3,0.2c-1.4-0.1-2.7-0.2-4-0.6c-1.3-0.3-2.5-0.8-3.6-1.3c-1.2-0.6-2.2-1.3-3.3-2.1
					c-1-0.8-2-1.8-2.8-3c-0.9-1.1-1.7-2.4-2.4-3.8c-0.7-1.4-1.3-3-1.9-4.7c-0.6-1.7-1-3.3-1.2-4.9c-0.2-1.6-0.3-3.1-0.2-4.6
					c0.1-1.5,0.3-2.9,0.7-4.2c0.4-1.4,1-2.7,1.7-3.9c0.7-1.2,1.6-2.4,2.6-3.4c1-1.1,2.1-2,3.4-2.9c1.2-0.9,2.6-1.6,4.1-2.3
					c1.5-0.7,3.1-1.2,4.9-1.7c1.4-0.4,2.7-0.6,4.1-0.8c1.4-0.2,2.8-0.3,4.3-0.3c1.4,0,2.6-0.1,3.4-0.1c0.8,0,1.4-0.1,1.6-0.1
					c0.4-0.1,0.8-0.3,0.9-0.5c0.2-0.2,0.4-0.6,0.5-1.1c0.3-0.1,0.4-0.1,0.7-0.2c0.5,1.7,0.8,3.1,1.2,4.4c0.4,1.3,0.7,2.5,1,3.9
					c0.4,1.3,0.7,2.7,1.2,4.4c-0.5,0.1-0.7,0.2-1.2,0.3c-1-1.1-2-2.1-3-3.1c-1-0.9-1.9-1.8-2.9-2.5c-0.9-0.7-1.9-1.4-2.8-1.9
					c-1.4-0.8-2.7-1.4-4.1-1.6c-1.4-0.2-2.7-0.2-4.1,0.2c-1.4,0.4-2.5,0.9-3.5,1.7c-1,0.8-1.7,1.7-2.2,2.9c-0.5,1.2-0.9,2.5-1,4.1
					c-0.1,1.5-0.1,3.3,0.2,5.2c0.3,1.9,0.8,4.1,1.4,6.4c0.5,1.8,0.8,2.8,1.3,4.6c0.6,1.9,1.2,3.7,1.8,5.3c0.6,1.6,1.3,3,2,4.2
					c0.7,1.2,1.5,2.2,2.3,3.1c1.2,1.3,2.4,2.1,3.7,2.6C42.9,55.5,44.3,55.5,45.7,55.2z"/>
				<path d="M87.9,47.6C86.2,47.9,84.6,48,83,48c-1.5,0-2.9-0.1-4.3-0.3c-1.3-0.2-2.6-0.6-3.8-1.1c-1.2-0.5-2.3-1.1-3.3-1.8
					c-1-0.7-2-1.6-2.8-2.6c-0.9-1-1.6-2.1-2.3-3.3c-0.7-1.2-1.3-2.5-1.8-4c-0.5-1.5-1-3-1.3-4.7c-0.3-1.7-0.6-3.3-0.6-4.9
					c-0.1-1.6,0-3.1,0.2-4.5c0.2-1.4,0.6-2.8,1.1-4.1c0.5-1.3,1.1-2.5,1.9-3.7c0.8-1.2,1.7-2.2,2.8-3.2c1.1-1,2.2-1.8,3.6-2.5
					C73.6,6.6,75,6,76.6,5.5c1.6-0.5,3.3-0.9,5.1-1.2c1.8-0.3,3.6-0.4,5.2-0.4c1.6,0,3.2,0.2,4.6,0.5c1.4,0.3,2.8,0.7,4,1.3
					c1.2,0.6,2.4,1.3,3.4,2.1c1,0.8,1.9,1.8,2.8,2.9c0.8,1.1,1.5,2.2,2.1,3.5c0.6,1.3,1.1,2.7,1.5,4.2c0.4,1.5,0.7,3.1,0.8,4.9
					c0.2,1.7,0.2,3.4,0.2,4.9c-0.1,1.6-0.3,3-0.6,4.4c-0.3,1.4-0.7,2.7-1.2,3.9c-0.5,1.2-1.2,2.4-1.9,3.4c-0.8,1.1-1.6,2-2.6,2.8
					c-1,0.8-2.1,1.6-3.3,2.2c-1.2,0.6-2.6,1.2-4,1.6C91.1,47,89.6,47.4,87.9,47.6z M93.1,27.3c-0.2-1.8-0.4-2.7-0.6-4.5
					c-0.3-2.4-0.7-4.6-1-6.4c-0.3-1.8-0.7-3.4-1-4.6c-0.3-1.2-0.7-2.1-1-2.7c-0.6-1-1.3-1.9-2-2.5c-0.7-0.6-1.5-1-2.4-1.1
					c-1-0.2-2.2-0.2-3.5,0c-1.3,0.2-2.5,0.5-3.4,1c-0.9,0.5-1.6,1.2-2.1,2.1c-0.5,0.9-0.9,1.8-1.1,2.8c-0.2,0.9-0.3,2.2-0.3,3.9
					c0,0.8,0.1,1.7,0.2,2.7c0.1,1,0.3,2.2,0.5,3.4c0.2,1.3,0.4,2.6,0.7,4.1c0.3,1.7,0.4,2.6,0.7,4.3c0.3,1.6,0.6,3.1,0.8,4.4
					c0.3,1.3,0.5,2.4,0.8,3.4s0.5,1.8,0.8,2.5c0.7,2,1.5,3.4,2.2,4.2c0.8,0.9,1.7,1.5,2.8,1.8c1.1,0.3,2.2,0.4,3.6,0.2
					c1.6-0.2,2.9-0.8,3.8-1.6c1-0.8,1.6-1.9,1.9-3.3c0.2-0.9,0.3-2.1,0.4-3.4c0-1.4,0-2.9-0.1-4.7C93.6,31.5,93.4,29.5,93.1,27.3z"
					/>
			</g>
		</g>
	</g>
</g>
</svg>
